<svg xmlns="http://www.w3.org/2000/svg" xmlns:xlink="http://www.w3.org/1999/xlink" width="500" zoomAndPan="magnify" viewBox="0 0 375 374.999991" height="500" preserveAspectRatio="xMidYMid meet" version="1.0"><defs><g/><clipPath id="dd21f530b7"><path d="M 47.082031 100 L 137 100 L 137 198 L 47.082031 198 Z M 47.082031 100 " clip-rule="nonzero"/></clipPath><clipPath id="c2fdd12882"><path d="M 63 159 L 108 159 L 108 288.191406 L 63 288.191406 Z M 63 159 " clip-rule="nonzero"/></clipPath></defs><path fill="#69a820" d="M 144.757812 173.472656 C 149.191406 152.410156 172.144531 138.285156 175.835938 136.234375 C 217.851562 112.863281 261.5625 106.988281 261.5625 106.988281 C 195.761719 99.722656 153.550781 137.699219 153.550781 137.699219 C 191.242188 31.738281 302.875 109.53125 302.875 109.53125 C 302.875 109.53125 281.894531 117.515625 261.324219 134.964844 C 222.773438 167.683594 167.601562 145.851562 144.757812 173.472656 " fill-opacity="1" fill-rule="nonzero"/><g clip-path="url(#dd21f530b7)"><path fill="#80cc28" d="M 128.980469 197.8125 C 133.160156 182.253906 122.632812 165.023438 120.871094 162.402344 C 100.753906 132.523438 73.585938 113.742188 73.585938 113.742188 C 119.945312 131.269531 135.238281 170.953125 135.238281 170.953125 C 145.996094 87.449219 45.160156 101.394531 45.160156 101.394531 C 45.160156 101.394531 56.453125 113.855469 64.257812 132.492188 C 78.894531 167.425781 123.101562 171.617188 128.980469 197.8125 " fill-opacity="1" fill-rule="nonzero"/></g><path fill="#ff1616" d="M 229.011719 198.285156 C 229.796875 197.847656 230.546875 197.460938 231.273438 197.101562 C 233.964844 193.804688 236.15625 190.886719 237.476562 188.75 C 238.894531 186.457031 232.75 186.277344 223.8125 194.851562 C 218.539062 199.910156 213.289062 204.464844 208.210938 208.488281 C 214.621094 205.78125 221.59375 202.414062 229.011719 198.285156 " fill-opacity="1" fill-rule="nonzero"/><path fill="#ff1616" d="M 109.789062 258.097656 C 109.789062 258.097656 127.898438 240.3125 147.984375 238.15625 C 156.175781 237.277344 190.484375 231.691406 207.292969 222.746094 C 220.324219 215.8125 238.582031 203.679688 244.820312 197.742188 C 246.773438 195.886719 240.875 194.148438 230.058594 200.171875 C 195.414062 219.453125 165.300781 224.652344 163.585938 216.0625 C 162.105469 208.644531 172.664062 201.171875 181.628906 195.878906 C 190.023438 190.921875 188.679688 188.992188 183.082031 189.941406 C 116.601562 201.15625 109.789062 258.097656 109.789062 258.097656 " fill-opacity="1" fill-rule="nonzero"/><path fill="#ff1616" d="M 72.023438 172.109375 C 71.96875 171.320312 71.902344 170.582031 71.816406 169.878906 C 72.957031 166.332031 74.054688 163.332031 74.996094 161.34375 C 76.003906 159.210938 79.054688 163.644531 77.015625 174.296875 C 75.808594 180.589844 74.964844 186.613281 74.425781 192.265625 C 73.367188 186.257812 72.523438 179.527344 72.023438 172.109375 " fill-opacity="1" fill-rule="nonzero"/><g clip-path="url(#c2fdd12882)"><path fill="#ff1616" d="M 84.824219 288.265625 C 84.824219 288.265625 89.257812 266.488281 81.292969 250.683594 C 78.042969 244.238281 65.835938 216.335938 64.40625 199.714844 C 63.300781 186.832031 63.519531 167.628906 64.910156 160.214844 C 65.34375 157.898438 69.421875 161.410156 70.144531 172.234375 C 72.472656 206.890625 82.96875 231.519531 90.082031 228.703125 C 96.226562 226.265625 96.6875 214.941406 96.308594 205.832031 C 95.953125 197.296875 98.007812 197.371094 99.976562 201.941406 C 123.34375 256.191406 84.824219 288.265625 84.824219 288.265625 " fill-opacity="1" fill-rule="nonzero"/></g><g fill="#69a820" fill-opacity="1"><g transform="translate(25.656908, 331.00052)"><g><path d="M 13.3125 0.761719 C 21.984375 0.683594 26.398438 -7.226562 30.65625 -17.800781 C 34.992188 -17.269531 39.175781 -16.660156 41.382812 -16.507812 C 39.9375 -10.800781 38.644531 -5.78125 37.960938 -1.21875 C 38.1875 0.53125 43.664062 0.609375 44.273438 -1.140625 C 44.804688 -5.933594 46.402344 -11.410156 47.542969 -16.660156 C 53.324219 -17.117188 59.488281 -19.398438 62.988281 -24.191406 C 63.976562 -25.558594 62.53125 -27.613281 61.3125 -26.320312 C 58.195312 -22.667969 53.402344 -21.070312 48.382812 -20.613281 C 49.597656 -25.40625 52.261719 -37.351562 53.25 -44.882812 C 54.238281 -52.871094 46.707031 -55.074219 40.164062 -48.457031 C 35.222656 -43.285156 30.65625 -32.710938 26.472656 -22.515625 C 16.660156 -23.65625 6.847656 -19.167969 4.714844 -10.34375 C 3.195312 -4.109375 6.160156 0.761719 13.3125 0.761719 Z M 42.371094 -20.613281 C 40.164062 -20.691406 36.058594 -21.300781 32.328125 -21.832031 C 35.523438 -30.046875 39.40625 -41.078125 44.347656 -46.328125 C 46.707031 -48.914062 48.761719 -48.304688 48.152344 -44.957031 C 46.554688 -36.816406 43.664062 -25.636719 42.371094 -20.613281 Z M 13.539062 -3.804688 C 10.421875 -3.804688 9.738281 -6.847656 10.726562 -10.042969 C 12.628906 -15.976562 17.648438 -18.484375 24.800781 -18.257812 C 21.222656 -10.042969 18.636719 -3.878906 13.539062 -3.804688 Z M 13.539062 -3.804688 "/></g></g></g><g fill="#69a820" fill-opacity="1"><g transform="translate(84.983366, 331.00052)"><g><path d="M 17.800781 -32.179688 C 12.324219 -31.644531 6.542969 -28.222656 2.585938 -22.058594 C -4.03125 -12.019531 -3.804688 0.988281 6.007812 0.683594 C 11.867188 0.53125 15.746094 -5.097656 18.179688 -9.507812 C 16.886719 -5.171875 15.367188 -0.378906 14.605469 2.128906 C 7.605469 5.171875 -0.457031 8.824219 -1.21875 15.519531 C -1.671875 20.160156 1.292969 22.667969 5.707031 22.441406 C 11.941406 22.289062 15.898438 18.867188 19.550781 4.335938 C 28.296875 0.378906 33.320312 -5.324219 38.113281 -16.203125 C 38.492188 -17.117188 36.132812 -18.332031 35.828125 -17.574219 C 32.179688 -8.597656 26.851562 -2.585938 20.765625 -0.152344 C 23.503906 -9.8125 25.027344 -16.050781 26.851562 -22.898438 C 27.003906 -24.34375 22.210938 -25.636719 21.527344 -24.191406 C 20.539062 -20.765625 19.320312 -17.421875 17.953125 -14.683594 C 13.921875 -6.464844 8.519531 -1.976562 5.78125 -4.5625 C 3.574219 -6.769531 4.410156 -12.933594 7.152344 -18.179688 C 10.042969 -23.582031 14.378906 -27.386719 19.09375 -27.765625 C 22.210938 -28.144531 25.636719 -27.234375 28.601562 -24.875 C 29.667969 -23.808594 32.558594 -26.929688 31.875 -27.917969 C 27.917969 -31.492188 22.515625 -32.710938 17.800781 -32.179688 Z M 12.171875 11.335938 C 9.433594 20.3125 2.128906 19.019531 5.019531 13.617188 C 6.238281 11.105469 9.964844 8.445312 13.539062 6.617188 Z M 12.171875 11.335938 "/></g></g></g><g fill="#69a820" fill-opacity="1"><g transform="translate(120.579245, 331.00052)"><g><path d="M 1.21875 -13.3125 C 4.335938 -19.855469 5.933594 -24.953125 7.226562 -29.894531 C 9.050781 -27.765625 12.550781 -24.800781 10.648438 -22.058594 C 7.453125 -17.496094 4.261719 -12.476562 4.335938 -7.605469 C 4.335938 -3.042969 6.921875 0.53125 12.324219 0.683594 C 20.234375 0.914062 26.167969 -5.933594 30.503906 -16.128906 C 30.882812 -17.039062 28.527344 -18.332031 28.144531 -17.574219 C 24.039062 -7.757812 18.257812 -3.652344 14.300781 -3.804688 C 11.867188 -3.804688 10.800781 -5.554688 10.800781 -7.988281 C 10.800781 -12.09375 13.769531 -16.660156 16.964844 -20.613281 C 20.160156 -24.648438 13.160156 -29.742188 9.28125 -34.078125 C 11.789062 -44.195312 -1.292969 -40.699219 5.019531 -31.949219 C 3.269531 -25.332031 1.976562 -21.375 -1.140625 -14.53125 C -1.671875 -13.769531 0.835938 -12.550781 1.21875 -13.3125 Z M 1.21875 -13.3125 "/></g></g></g><g fill="#69a820" fill-opacity="1"><g transform="translate(148.56917, 331.00052)"><g><path d="M 8.824219 -36.894531 C 10.953125 -36.894531 12.703125 -38.261719 12.933594 -40.546875 C 13.085938 -42.75 11.640625 -44.121094 9.585938 -44.195312 C 7.53125 -44.195312 5.78125 -42.828125 5.554688 -40.546875 C 5.324219 -38.339844 6.847656 -36.894531 8.824219 -36.894531 Z M 3.042969 0.683594 C 10.421875 0.683594 16.128906 -9.050781 19.167969 -16.050781 C 19.625 -17.191406 17.191406 -18.410156 16.8125 -17.496094 C 14.226562 -10.953125 8.898438 -3.726562 5.019531 -3.574219 C 2.964844 -3.5 3.347656 -5.859375 4.03125 -8.976562 C 5.402344 -14.757812 6.542969 -18.5625 9.8125 -30.199219 C 9.738281 -31.722656 4.792969 -32.785156 3.957031 -30.960938 C 1.066406 -20.613281 -0.457031 -15.367188 -2.128906 -8.292969 C -3.421875 -2.585938 -2.207031 0.761719 3.042969 0.683594 Z M 3.042969 0.683594 "/></g></g></g><g fill="#69a820" fill-opacity="1"><g transform="translate(165.226217, 331.00052)"><g><path d="M 32.632812 -44.5 C 22.363281 -42.066406 19.777344 -10.042969 15.746094 -2.207031 C 14.757812 0.0742188 20.160156 0.988281 21.300781 -0.835938 C 22.972656 -3.957031 24.265625 -11.410156 26.167969 -18.636719 C 38.871094 -13.996094 51.273438 -19.398438 53.171875 -33.320312 C 55 -45.945312 44.121094 -52.792969 32.785156 -53.019531 C 20.234375 -53.171875 8.824219 -46.023438 8.824219 -35.449219 C 8.824219 -32.027344 10.117188 -28.679688 13.085938 -26.246094 C 14.53125 -25.179688 17.648438 -27.386719 16.8125 -28.984375 C 9.738281 -38.492188 20.765625 -48.835938 33.167969 -48.230469 C 40.851562 -47.847656 47.925781 -43.054688 46.859375 -34.078125 C 45.792969 -24.34375 38.113281 -18.789062 27.15625 -22.441406 C 29.136719 -30.429688 31.113281 -40.011719 35.753906 -41.992188 C 37.425781 -42.980469 34.6875 -45.035156 32.632812 -44.5 Z M 32.632812 -44.5 "/></g></g></g><g fill="#69a820" fill-opacity="1"><g transform="translate(220.293345, 331.00052)"><g><path d="M 17.722656 -32.328125 C 8.898438 -32.027344 1.066406 -24.34375 -0.683594 -14.148438 C -2.664062 -3.117188 3.042969 0.683594 9.433594 0.683594 C 14.378906 0.683594 18.410156 -1.371094 21.605469 -4.867188 C 27.234375 -3.421875 33.546875 -5.019531 38.261719 -16.128906 C 38.71875 -17.191406 36.285156 -18.332031 35.90625 -17.574219 C 32.328125 -8.597656 27.84375 -7.152344 23.960938 -7.53125 C 30.125 -17.722656 30.808594 -32.710938 17.722656 -32.328125 Z M 17.117188 -27.84375 C 23.886719 -28.222656 22.820312 -18.636719 19.320312 -11.183594 C 17.496094 -11.941406 15.367188 -9.355469 16.964844 -7.152344 C 15.136719 -5.097656 12.78125 -3.726562 10.421875 -3.726562 C 5.476562 -3.726562 5.019531 -9.050781 5.78125 -13.921875 C 6.769531 -19.929688 11.640625 -27.539062 17.117188 -27.84375 Z M 17.117188 -27.84375 "/></g></g></g><g fill="#69a820" fill-opacity="1"><g transform="translate(256.041337, 331.00052)"><g><path d="M 7.453125 0.761719 C 14.910156 0.609375 20.613281 -6.238281 24.648438 -16.050781 C 25.101562 -17.117188 22.746094 -18.410156 22.363281 -17.574219 C 19.777344 -11.105469 14.148438 -3.652344 8.824219 -3.726562 C 4.640625 -3.804688 4.488281 -9.203125 6.085938 -16.660156 C 6.769531 -19.929688 7.910156 -24.113281 9.128906 -28.296875 L 17.039062 -28.296875 C 17.953125 -28.527344 18.789062 -31.570312 17.496094 -32.328125 L 10.195312 -32.328125 C 12.09375 -38.339844 13.996094 -44.121094 15.671875 -48.53125 C 15.976562 -50.207031 10.648438 -51.273438 9.890625 -49.828125 C 8.214844 -45.566406 5.78125 -38.796875 3.804688 -32.328125 L 0.53125 -32.328125 C -0.53125 -31.796875 -1.21875 -29.058594 0.152344 -28.296875 L 2.664062 -28.296875 C -0.609375 -15.976562 -4.945312 0.914062 7.453125 0.761719 Z M 7.453125 0.761719 "/></g></g></g><g fill="#69a820" fill-opacity="1"><g transform="translate(278.174677, 331.00052)"><g><path d="M 18.027344 -32.179688 C 10.34375 -32.632812 2.664062 -26.851562 0 -17.269531 C -2.511719 -8.445312 1.140625 0.152344 11.867188 0.761719 C 17.875 1.066406 28.070312 -0.609375 34.308594 -16.128906 C 34.6875 -17.117188 32.328125 -18.410156 32.027344 -17.574219 C 27.234375 -6.085938 18.484375 -2.890625 12.855469 -3.726562 C 7.605469 -4.488281 5.019531 -8.445312 5.859375 -13.769531 C 14.832031 -11.257812 22.136719 -13.921875 25.101562 -19.855469 C 27.84375 -25.101562 25.789062 -31.796875 18.027344 -32.179688 Z M 17.039062 -27.84375 C 20.996094 -27.84375 20.917969 -24.113281 19.320312 -21.070312 C 17.34375 -17.269531 12.78125 -15.824219 6.464844 -17.039062 C 8.0625 -22.898438 13.007812 -27.917969 17.039062 -27.84375 Z M 17.039062 -27.84375 "/></g></g></g></svg>